<?xml version="1.0" standalone="no"?>
<!DOCTYPE svg PUBLIC "-//W3C//DTD SVG 20010904//EN"
 "http://www.w3.org/TR/2001/REC-SVG-20010904/DTD/svg10.dtd">
<svg version="1.0" xmlns="http://www.w3.org/2000/svg"
 width="260.000000pt" height="260.000000pt" viewBox="0 0 260.000000 260.000000"
 preserveAspectRatio="xMidYMid meet">
<metadata>
Created by potrace 1.14, written by Peter Selinger 2001-2017
</metadata>
<g transform="translate(0.000000,260.000000) scale(0.100000,-0.100000)"
fill="#000000" stroke="none">
<path d="M294 2585 c-141 -45 -244 -150 -283 -290 -8 -28 -10 -323 -8 -1015
l2 -975 32 -67 c42 -89 111 -159 198 -200 l70 -33 960 -3 c1007 -3 1020 -3
1113 41 68 31 147 114 184 193 l33 69 0 995 0 995 -32 68 c-41 87 -114 159
-201 200 l-67 32 -980 2 c-774 1 -989 -2 -1021 -12z"/>
</g>
</svg>
