<?xml version="1.0" encoding="UTF-8"?>
<svg xmlns="http://www.w3.org/2000/svg" xmlns:xlink="http://www.w3.org/1999/xlink" viewBox="0 0 3510 2532">
  <defs>
    <style>
      .cls-1, .cls-2 {
        fill: none;
      }

      .cls-3 {
        fill: url(#Unbenannter_Verlauf_28-3);
      }

      .cls-4 {
        fill: url(#Unbenannter_Verlauf_28-2);
      }

      .cls-5 {
        fill: url(#Unbenannter_Verlauf_41-4);
      }

      .cls-6 {
        fill: url(#Unbenannter_Verlauf_41-3);
      }

      .cls-7 {
        fill: url(#Unbenannter_Verlauf_41-2);
      }

      .cls-8 {
        fill: url(#Unbenannter_Verlauf_41-5);
      }

      .cls-9 {
        fill: url(#Unbenannter_Verlauf_26-2);
      }

      .cls-10 {
        fill: url(#Unbenannter_Verlauf_26-3);
      }

      .cls-11 {
        fill: #fff;
      }

      .cls-12 {
        fill: #211a38;
      }

      .cls-13 {
        fill: #41387a;
      }

      .cls-14 {
        fill: #35a7aa;
      }

      .cls-15 {
        fill: #453c70;
      }

      .cls-16 {
        fill: #3c2e67;
      }

      .cls-17 {
        fill: #2f1e4a;
      }

      .cls-18 {
        fill: #605ca5;
      }

      .cls-19 {
        clip-path: url(#clippath-1);
      }

      .cls-2, .cls-20 {
        stroke: #1d1d1b;
        stroke-miterlimit: 10;
      }

      .cls-21 {
        opacity: .51;
      }

      .cls-22 {
        opacity: .83;
      }

      .cls-23 {
        fill: url(#Unbenannter_Verlauf_26);
      }

      .cls-24 {
        fill: url(#Unbenannter_Verlauf_27);
      }

      .cls-25 {
        fill: url(#Unbenannter_Verlauf_28);
      }

      .cls-26 {
        fill: url(#Unbenannter_Verlauf_30);
      }

      .cls-27 {
        fill: url(#Unbenannter_Verlauf_41);
      }

      .cls-20 {
        fill: url(#Unbenannter_Verlauf_19);
        opacity: .55;
      }
    </style>
    <linearGradient id="Unbenannter_Verlauf_19" data-name="Unbenannter Verlauf 19" x1="1756.77" y1="25.66" x2="1751.4" y2="1575.47" gradientTransform="matrix(1, 0, 0, 1, 0, 0)" gradientUnits="userSpaceOnUse">
      <stop offset="0" stop-color="#323366"/>
      <stop offset=".25" stop-color="#6e5f7a"/>
      <stop offset=".5" stop-color="#a98a8d"/>
      <stop offset=".73" stop-color="#d4aa9b"/>
      <stop offset=".9" stop-color="#efbda4"/>
      <stop offset="1" stop-color="#f9c5a8"/>
    </linearGradient>
    <linearGradient id="Unbenannter_Verlauf_26" data-name="Unbenannter Verlauf 26" x1="484.09" y1="263.12" x2="369.36" y2="106.75" gradientTransform="matrix(1, 0, 0, 1, 0, 0)" gradientUnits="userSpaceOnUse">
      <stop offset=".09" stop-color="#fac365"/>
      <stop offset=".18" stop-color="#f6af63"/>
      <stop offset=".37" stop-color="#f18f60"/>
      <stop offset=".54" stop-color="#ee775e"/>
      <stop offset=".71" stop-color="#eb695d"/>
      <stop offset=".86" stop-color="#eb655d"/>
    </linearGradient>
    <linearGradient id="Unbenannter_Verlauf_30" data-name="Unbenannter Verlauf 30" x1="1496.55" y1="514.6" x2="1371.51" y2="345.57" gradientTransform="matrix(1, 0, 0, 1, 0, 0)" gradientUnits="userSpaceOnUse">
      <stop offset=".32" stop-color="#35a7aa"/>
      <stop offset=".36" stop-color="#33a2a5"/>
      <stop offset=".54" stop-color="#2c8b8d"/>
      <stop offset=".71" stop-color="#287d7f"/>
      <stop offset=".86" stop-color="#27797b"/>
    </linearGradient>
    <linearGradient id="Unbenannter_Verlauf_26-2" data-name="Unbenannter Verlauf 26" x1="1465.93" y1="484.64" x2="1400.74" y2="368.31" xlink:href="#Unbenannter_Verlauf_26"/>
    <linearGradient id="Unbenannter_Verlauf_27" data-name="Unbenannter Verlauf 27" x1="1052.91" y1="188.11" x2="980.36" y2="89.23" gradientTransform="translate(1012.19 -885.5) rotate(80.78)" gradientUnits="userSpaceOnUse">
      <stop offset=".09" stop-color="#36ade4"/>
      <stop offset=".19" stop-color="#2ba1db"/>
      <stop offset=".43" stop-color="#1789ca"/>
      <stop offset=".66" stop-color="#0b7bc0"/>
      <stop offset=".86" stop-color="#0777bd"/>
    </linearGradient>
    <clipPath id="clippath-1">
      <circle id="Beschneidungspfad" class="cls-1" cx="1026.48" cy="152.09" r="45.48" transform="translate(711.93 1140.96) rotate(-80.78)"/>
    </clipPath>
    <linearGradient id="Unbenannter_Verlauf_28" data-name="Unbenannter Verlauf 28" x1="1020.22" y1="165.06" x2="985.33" y2="117.49" gradientTransform="matrix(1, 0, 0, 1, 0, 0)" gradientUnits="userSpaceOnUse">
      <stop offset=".09" stop-color="#94c11f"/>
      <stop offset=".18" stop-color="#81b725"/>
      <stop offset=".36" stop-color="#61a632"/>
      <stop offset=".54" stop-color="#499a3a"/>
      <stop offset=".71" stop-color="#3b9340"/>
      <stop offset=".86" stop-color="#379142"/>
    </linearGradient>
    <linearGradient id="Unbenannter_Verlauf_28-2" data-name="Unbenannter Verlauf 28" x1="1044.11" y1="152.95" x2="1001.98" y2="95.52" xlink:href="#Unbenannter_Verlauf_28"/>
    <linearGradient id="Unbenannter_Verlauf_28-3" data-name="Unbenannter Verlauf 28" x1="1049.1" y1="152.34" x2="1009.42" y2="98.27" xlink:href="#Unbenannter_Verlauf_28"/>
    <linearGradient id="Unbenannter_Verlauf_26-3" data-name="Unbenannter Verlauf 26" x1="1063.18" y1="786.67" x2="1057.33" y2="788.59" xlink:href="#Unbenannter_Verlauf_26"/>
    <linearGradient id="Unbenannter_Verlauf_41" data-name="Unbenannter Verlauf 41" x1="1107.8" y1="754.07" x2="1133.73" y2="754.07" gradientTransform="translate(203.84 -19.49) rotate(1.2) scale(.83 1) skewX(.45)" gradientUnits="userSpaceOnUse">
      <stop offset=".08" stop-color="#6c66a4"/>
      <stop offset=".46" stop-color="#6068a1"/>
      <stop offset=".86" stop-color="#5c6aa1"/>
    </linearGradient>
    <linearGradient id="Unbenannter_Verlauf_41-2" data-name="Unbenannter Verlauf 41" x1="1140.02" y1="753.52" x2="1165.96" y2="753.52" gradientTransform="translate(203.84 -19.96) rotate(1.2) scale(.83 1) skewX(.45)" xlink:href="#Unbenannter_Verlauf_41"/>
    <linearGradient id="Unbenannter_Verlauf_41-3" data-name="Unbenannter Verlauf 41" x1="1171.85" y1="752.98" x2="1197.78" y2="752.98" gradientTransform="translate(203.84 -20.42) rotate(1.2) scale(.83 1) skewX(.45)" xlink:href="#Unbenannter_Verlauf_41"/>
    <linearGradient id="Unbenannter_Verlauf_41-4" data-name="Unbenannter Verlauf 41" x1="1058.55" y1="755.2" x2="1075.79" y2="755.2" gradientTransform="translate(190.49 -3.32) rotate(.2) scale(.83 1) skewX(.45)" xlink:href="#Unbenannter_Verlauf_41"/>
    <linearGradient id="Unbenannter_Verlauf_41-5" data-name="Unbenannter Verlauf 41" x1="1073.18" y1="754.9" x2="1086.62" y2="754.9" gradientTransform="translate(190.49 -3.32) rotate(.2) scale(.83 1) skewX(.45)" xlink:href="#Unbenannter_Verlauf_41"/>
  </defs>
  <g id="Stars">
    <rect class="cls-2" x="0" width="3510" height="1051.69"/>
    <rect id="Smoother" class="cls-20" x="0" width="3510" height="1073.28"/>
    <g id="Sterne" class="cls-21">
      <circle class="cls-11" cx="438.82" cy="284.29" r="1.33"/>
      <circle class="cls-11" cx="573.15" cy="324.58" r="1.33"/>
      <circle class="cls-11" cx="613.15" cy="254.58" r="1.33"/>
      <circle class="cls-11" cx="663.15" cy="373.58" r="1.33"/>
      <circle class="cls-11" cx="511.9" cy="222.81" r="1.33"/>
      <circle class="cls-11" cx="545.35" cy="359.01" r="1.33"/>
      <circle class="cls-11" cx="625.97" cy="357.95" r="1.33"/>
      <circle class="cls-11" cx="548.8" cy="461.43" r="1.33"/>
      <circle class="cls-11" cx="436.09" cy="396.06" r="1.33"/>
      <circle class="cls-11" cx="565.04" cy="340.9" r="1.33"/>
      <circle class="cls-11" cx="550.89" cy="261.53" r="1.33"/>
      <circle class="cls-11" cx="665.54" cy="320.85" r="1.33"/>
      <circle class="cls-11" cx="452.81" cy="302.02" r="1.33"/>
      <circle class="cls-11" cx="565.77" cy="385.15" r="1.33"/>
      <circle class="cls-11" cx="626.98" cy="332.68" r="1.33"/>
      <circle class="cls-11" cx="634.05" cy="461.56" r="1.33"/>
      <circle class="cls-11" cx="673.75" cy="169.71" r="1.33"/>
      <circle class="cls-11" cx="808.08" cy="210.01" r="1.33"/>
      <circle class="cls-11" cx="848.08" cy="140.01" r="1.33"/>
      <circle class="cls-11" cx="898.08" cy="259.01" r="1.33"/>
      <circle class="cls-11" cx="746.84" cy="108.24" r="1.33"/>
      <circle class="cls-11" cx="780.29" cy="244.44" r="1.33"/>
      <circle class="cls-11" cx="860.9" cy="243.38" r="1.33"/>
      <circle class="cls-11" cx="783.74" cy="346.85" r="1.33"/>
      <circle class="cls-11" cx="920.73" cy="315.23" r="1.33"/>
      <circle class="cls-11" cx="1055.6" cy="276.76" r="1.33"/>
      <circle class="cls-11" cx="1051.56" cy="196.24" r="1.33"/>
      <circle class="cls-11" cx="1157.82" cy="269.52" r="1.33"/>
      <circle class="cls-11" cx="949.15" cy="224.05" r="1.33"/>
      <circle class="cls-11" cx="1050.75" cy="320.74" r="1.33"/>
      <circle class="cls-11" cx="1118.08" cy="276.4" r="1.33"/>
      <circle class="cls-11" cx="1108.86" cy="405.15" r="1.33"/>
      <circle class="cls-11" cx="718.87" cy="347.32" r="1.33"/>
      <circle class="cls-11" cx="853.21" cy="387.61" r="1.33"/>
      <circle class="cls-11" cx="893.21" cy="317.61" r="1.33"/>
      <circle class="cls-11" cx="943.21" cy="436.61" r="1.33"/>
      <circle class="cls-11" cx="791.96" cy="285.84" r="1.33"/>
      <circle class="cls-11" cx="825.41" cy="422.04" r="1.33"/>
      <circle class="cls-11" cx="906.03" cy="420.98" r="1.33"/>
      <circle class="cls-11" cx="828.86" cy="524.46" r="1.33"/>
      <circle class="cls-11" cx="328.01" cy="103.99" r="1.33"/>
      <circle class="cls-11" cx="419.09" cy="210.64" r="1.33"/>
      <circle class="cls-11" cx="490.64" cy="173.47" r="1.33"/>
      <circle class="cls-11" cx="468.19" cy="300.59" r="1.33"/>
      <circle class="cls-11" cx="422.75" cy="91.91" r="1.33"/>
      <circle class="cls-11" cx="377.07" cy="224.52" r="1.33"/>
      <circle class="cls-11" cx="445.4" cy="267.31" r="1.33"/>
      <circle class="cls-11" cx="324.48" cy="312.47" r="1.33"/>
      <circle class="cls-11" cx="381.86" cy="305.21" r="1.33"/>
      <circle class="cls-11" cx="475.79" cy="322.48" r="1.33"/>
      <circle class="cls-11" cx="377.07" cy="327.29" r="1.33"/>
      <circle class="cls-11" cx="387.97" cy="338.24" r="1.33"/>
      <circle class="cls-11" cx="399.15" cy="299.49" r="1.33"/>
      <circle class="cls-11" cx="204.77" cy="247.26" r="1.33"/>
      <circle class="cls-11" cx="233.99" cy="156.33" r="1.33"/>
      <circle class="cls-11" cx="226.05" cy="254.84" r="1.33"/>
      <circle class="cls-11" cx="238.32" cy="245.45" r="1.33"/>
      <circle class="cls-11" cx="201.33" cy="229.38" r="1.33"/>
      <circle class="cls-11" cx="422.16" cy="332.26" r="1.33"/>
      <circle class="cls-11" cx="522.16" cy="292.26" r="1.33"/>
      <circle class="cls-11" cx="352.16" cy="262.26" r="1.33"/>
      <circle class="cls-11" cx="352.16" cy="422.26" r="1.33"/>
      <circle class="cls-11" cx="402.16" cy="372.26" r="1.33"/>
      <circle class="cls-11" cx="272.16" cy="362.26" r="1.33"/>
      <circle class="cls-11" cx="442.16" cy="172.26" r="1.33"/>
      <circle class="cls-11" cx="422.16" cy="452.26" r="1.33"/>
      <circle class="cls-11" cx="522.16" cy="522.26" r="1.33"/>
      <circle class="cls-11" cx="322.16" cy="182.26" r="1.33"/>
      <circle class="cls-11" cx="493.97" cy="362.97" r="1.33"/>
      <circle class="cls-11" cx="144.07" cy="140.66" r="1.33"/>
      <circle class="cls-11" cx="260.14" cy="219.38" r="1.33"/>
      <circle class="cls-11" cx="319.29" cy="164.59" r="1.33"/>
      <circle class="cls-11" cx="331.31" cy="293.11" r="1.33"/>
      <circle class="cls-11" cx="232.23" cy="103.93" r="1.33"/>
      <circle class="cls-11" cx="223.3" cy="243.89" r="1.33"/>
      <circle class="cls-11" cx="300.52" cy="267.06" r="1.33"/>
      <circle class="cls-11" cx="195.88" cy="342.63" r="1.33"/>
      <circle class="cls-11" cx="107.96" cy="246.47" r="1.33"/>
      <circle class="cls-11" cx="247.51" cy="232.52" r="1.33"/>
      <circle class="cls-11" cx="257.81" cy="152.56" r="1.33"/>
      <circle class="cls-11" cx="349.39" cy="243.52" r="1.33"/>
      <circle class="cls-11" cx="152.1" cy="161.78" r="1.33"/>
      <circle class="cls-11" cx="234.94" cy="274.95" r="1.33"/>
      <circle class="cls-11" cx="309.06" cy="243.25" r="1.33"/>
      <circle class="cls-11" cx="277.16" cy="368.32" r="1.33"/>
      <circle class="cls-11" cx="402.54" cy="101.8" r="1.33"/>
      <circle class="cls-11" cx="518.62" cy="180.52" r="1.33"/>
      <circle class="cls-11" cx="577.77" cy="125.73" r="1.33"/>
      <circle class="cls-11" cx="589.79" cy="254.25" r="1.33"/>
      <circle class="cls-11" cx="490.7" cy="65.07" r="1.33"/>
      <circle class="cls-11" cx="481.78" cy="205.03" r="1.33"/>
      <circle class="cls-11" cx="559" cy="228.2" r="1.33"/>
      <circle class="cls-11" cx="454.36" cy="303.77" r="1.33"/>
      <circle class="cls-11" cx="594.54" cy="314.68" r="1.33"/>
      <circle class="cls-11" cx="734.73" cy="318.41" r="1.33"/>
      <circle class="cls-11" cx="755.02" cy="240.39" r="1.33"/>
      <circle class="cls-11" cx="648.99" cy="236.22" r="1.33"/>
      <circle class="cls-11" cx="716.92" cy="358.92" r="1.33"/>
      <circle class="cls-11" cx="747.05" cy="456.86" r="1.33"/>
      <circle class="cls-11" cx="392.34" cy="284.76" r="1.33"/>
      <circle class="cls-11" cx="508.42" cy="363.48" r="1.33"/>
      <circle class="cls-11" cx="567.56" cy="308.69" r="1.33"/>
      <circle class="cls-11" cx="579.58" cy="437.21" r="1.33"/>
      <circle class="cls-11" cx="480.5" cy="248.03" r="1.33"/>
      <circle class="cls-11" cx="471.57" cy="387.99" r="1.33"/>
      <circle class="cls-11" cx="548.8" cy="411.15" r="1.33"/>
      <circle class="cls-11" cx="444.16" cy="486.73" r="1.33"/>
      <circle class="cls-11" cx="1100.73" cy="119.78" r="1.33"/>
      <circle class="cls-11" cx="147.33" cy="64.49" r="1.33"/>
      <circle class="cls-11" cx="226.73" cy="50.49" r="1.33"/>
      <circle class="cls-11" cx="167.2" cy="165.02" r="1.33"/>
      <circle class="cls-11" cx="1194.73" cy="136.67" r="1.33"/>
      <circle class="cls-11" cx="103.09" cy="65.13" r="1.33"/>
      <circle class="cls-11" cx="155.44" cy="126.44" r="1.33"/>
      <circle class="cls-11" cx="26.55" cy="133.27" r="1.33"/>
      <circle class="cls-11" cx="83.46" cy="143.54" r="1.33"/>
      <circle class="cls-11" cx="167.89" cy="188.19" r="1.33"/>
      <circle class="cls-11" cx="72.27" cy="163.17" r="1.33"/>
      <circle class="cls-11" cx="79.39" cy="176.89" r="1.33"/>
      <circle class="cls-11" cx="101.67" cy="143.27" r="1.33"/>
      <circle class="cls-11" cx="25.05" cy="202" r="1.33"/>
      <circle class="cls-11" cx="80.19" cy="124.02" r="1.33"/>
      <circle class="cls-11" cx="43.08" cy="215.62" r="1.33"/>
      <circle class="cls-11" cx="57.6" cy="210.33" r="1.33"/>
      <circle class="cls-11" cx="27.12" cy="183.91" r="1.33"/>
      <circle class="cls-11" cx="113.79" cy="181.43" r="1.33"/>
      <circle class="cls-11" cx="221.18" cy="173.26" r="1.33"/>
      <circle class="cls-11" cx="68" cy="93.67" r="1.33"/>
      <circle class="cls-11" cx="20.03" cy="246.3" r="1.33"/>
      <circle class="cls-11" cx="82.72" cy="213.6" r="1.33"/>
      <circle class="cls-11" cx="54.85" cy="331.92" r="1.33"/>
      <circle class="cls-11" cx="180.84" cy="34.79" r="1.33"/>
      <circle class="cls-11" cx="77.81" cy="295.91" r="1.33"/>
      <circle class="cls-11" cx="152.22" cy="392.68" r="1.33"/>
      <circle class="cls-11" cx="63.37" cy="8.35" r="1.33"/>
      <circle class="cls-11" cx="173.1" cy="232.27" r="1.33"/>
      <circle class="cls-11" cx="417.07" cy="65.31" r="1.33"/>
      <circle class="cls-11" cx="556.55" cy="50.58" r="1.33"/>
      <circle class="cls-11" cx="1574.71" cy="154.91" r="1.33"/>
      <circle class="cls-11" cx="658.49" cy="61.01" r="1.33"/>
      <circle class="cls-11" cx="1469.04" cy="164.72" r="1.33"/>
      <circle class="cls-11" cx="544.21" cy="93.08" r="1.33"/>
      <circle class="cls-11" cx="618.16" cy="60.96" r="1.33"/>
      <circle class="cls-11" cx="586.96" cy="186.21" r="1.33"/>
      <circle class="cls-11" cx="457.74" cy="169.46" r="1.33"/>
      <circle class="cls-11" cx="555.37" cy="68.77" r="1.33"/>
      <circle class="cls-11" cx="511.66" cy="1.03" r="1.33"/>
      <circle class="cls-11" cx="640.32" cy="11.45" r="1.33"/>
      <circle class="cls-11" cx="436.83" cy="76.27" r="1.33"/>
      <circle class="cls-11" cx="573.13" cy="109.3" r="1.33"/>
      <circle class="cls-11" cx="609.32" cy="37.26" r="1.33"/>
      <circle class="cls-11" cx="665.63" cy="153.4" r="1.33"/>
      <circle class="cls-11" cx="21.75" cy="472.29" r="1.33"/>
      <circle class="cls-11" cx="68.07" cy="290.72" r="1.33"/>
      <circle class="cls-11" cx="77.92" cy="210.7" r="1.33"/>
      <circle class="cls-11" cx="170.01" cy="301.15" r="1.33"/>
      <circle class="cls-11" cx="65.41" cy="387.35" r="1.33"/>
      <circle class="cls-11" cx="55.73" cy="333.22" r="1.33"/>
      <circle class="cls-11" cx="129.68" cy="301.1" r="1.33"/>
      <circle class="cls-11" cx="212.62" cy="344.26" r="1.33"/>
      <circle class="cls-11" cx="1317.55" cy="386.95" r="1.33"/>
      <circle class="cls-11" cx="287.32" cy="183.96" r="1.33"/>
      <circle class="cls-11" cx="203.61" cy="249.18" r="1.33"/>
      <circle class="cls-11" cx="1330.07" cy="429.4" r="1.33"/>
      <circle class="cls-11" cx="1416.27" cy="484.8" r="1.33"/>
      <circle class="cls-11" cx="699.74" cy="15.26" r="1.33"/>
      <circle class="cls-11" cx="839.21" cy=".53" r="1.33"/>
      <circle class="cls-11" cx="188.15" cy="357.08" r="1.33"/>
      <circle class="cls-11" cx="941.15" cy="10.95" r="1.33"/>
      <circle class="cls-11" cx="82.49" cy="366.89" r="1.33"/>
      <circle class="cls-11" cx="826.87" cy="43.02" r="1.33"/>
      <circle class="cls-11" cx="900.82" cy="10.91" r="1.33"/>
      <circle class="cls-11" cx="869.62" cy="136.15" r="1.33"/>
      <circle class="cls-11" cx="1253.53" cy="126.16" r="1.33"/>
      <circle class="cls-11" cx="370.43" cy="5" r="1.33"/>
      <circle class="cls-11" cx="1430.37" cy="127.43" r="1.33"/>
      <circle class="cls-11" cx="450.46" cy="69" r="1.33"/>
      <circle class="cls-11" cx="1336.25" cy="78.43" r="1.33"/>
      <circle class="cls-11" cx="337.03" cy="34.04" r="1.33"/>
      <circle class="cls-11" cx="416.59" cy="47.11" r="1.33"/>
      <circle class="cls-11" cx="322.51" cy="135.47" r="1.33"/>
      <circle class="cls-11" cx="372.62" cy="106.61" r="1.33"/>
      <circle class="cls-11" cx="465.93" cy="86.26" r="1.33"/>
      <circle class="cls-11" cx="376.74" cy="128.83" r="1.33"/>
      <circle class="cls-11" cx="391.02" cy="134.72" r="1.33"/>
      <circle class="cls-11" cx="386.36" cy="94.66" r="1.33"/>
      <circle class="cls-11" cx="186.9" cy="121.57" r="1.33"/>
      <circle class="cls-11" cx="178.72" cy="26.42" r="1.33"/>
      <circle class="cls-11" cx="209.46" cy="120.35" r="1.33"/>
      <circle class="cls-11" cx="217.14" cy="106.94" r="1.33"/>
      <circle class="cls-11" cx="176.81" cy="106.41" r="1.33"/>
      <circle class="cls-11" cx="420.24" cy="116" r="1.33"/>
      <circle class="cls-11" cx="497.02" cy="40.47" r="1.33"/>
      <circle class="cls-11" cx="328.63" cy="78.47" r="1.33"/>
      <circle class="cls-11" cx="390.44" cy="226.05" r="1.33"/>
      <circle class="cls-11" cx="417.25" cy="160.62" r="1.33"/>
      <circle class="cls-11" cx="293.47" cy="201.62" r="1.33"/>
      <circle class="cls-11" cx="1385.18" cy="145.04" r="1.33"/>
      <circle class="cls-11" cx="466.6" cy="226.68" r="1.33"/>
      <circle class="cls-11" cx="585.88" cy="252.61" r="1.33"/>
      <circle class="cls-11" cx="270.06" cy="16.27" r="1.33"/>
      <circle class="cls-11" cx="498.35" cy="116.58" r="1.33"/>
    </g>
    <g id="Helle_sterne" data-name="Helle sterne" class="cls-22">
      <circle class="cls-11" cx="270.61" cy="118.46" r="1.88"/>
      <circle class="cls-11" cx="691.27" cy="352.25" r="1.88"/>
      <circle class="cls-11" cx="530.27" cy="382.25" r="1.88"/>
      <circle class="cls-11" cx="529.27" cy="382.25" r="1.88"/>
      <circle class="cls-11" cx="568.27" cy="162.25" r="1.88"/>
      <circle class="cls-11" cx="421.27" cy="232.25" r="1.88"/>
      <circle class="cls-11" cx="265.03" cy="203.61" r="1.88"/>
      <circle class="cls-11" cx="205.71" cy="382.84" r="1.88"/>
      <circle class="cls-11" cx="566.01" cy="395.91" r="1.88"/>
      <circle class="cls-11" cx="107.89" cy="113.38" r="1.88"/>
      <circle class="cls-11" cx="144.12" cy="98.43" r="1.88"/>
    </g>
  </g>
  <g id="Planets">
    <g id="Planet_1" data-name="Planet 1">
      <circle class="cls-23" cx="442.3" cy="206.16" r="71.92"/>
      <path class="cls-14" d="M567.71,260.72c-7.06,18.52-83.38,15.1-145.6-11.12-64.15-27.03-115.8-79.35-107.92-96.36,4.8-10.35,33.15-10.87,42.78-10.44,7.75,.35,16.61,1.92,16.45,3.68-.3,3.34-32.37,.72-36.1,10.55-5.07,13.36,44.95,42.57,70.24,57.34,0,0,47.39,27.67,117.25,40.21,8.3,1.49,22.5,3.73,25.82-2.38,5.2-9.56-19.94-32.73-18.97-33.84,1.16-1.34,41.8,27.27,36.05,42.36Z"/>
      <ellipse class="cls-26" cx="1443.81" cy="443.31" rx="46.19" ry="47.4"/>
      <path class="cls-9" d="M1524.68,408.9c5.33,11.86-30.52,46.24-70.49,63.47-41.22,17.76-88.43,17.98-92.69,6.43-2.6-7.03,9.9-20.63,14.42-24.96,3.64-3.49,8.34-6.94,9.08-6.05,1.4,1.68-14.21,15.58-11.37,21.87,3.86,8.55,39.73-1.55,57.86-6.66,0,0,33.98-9.57,71.11-36.7,4.41-3.22,11.81-8.88,10.5-13.26-2.05-6.86-23.98-5.69-24.06-6.66-.09-1.16,31.29-7.13,35.63,2.54Z"/>
    </g>
    <g id="Planet_2" data-name="Planet 2">
      <circle class="cls-24" cx="1026.48" cy="152.09" r="45.48" transform="translate(711.93 1140.96) rotate(-80.78)"/>
      <g class="cls-19">
        <path class="cls-25" d="M1013.06,128.84c-1.32,3.9,4.83,6.44,4.07,11.29-.51,3.25-3.59,4.14-13.9,11.6-9.8,7.09-10.24,8.62-10.22,9.67,.11,5.53,13.04,7.15,12.93,12.44-.07,3.37-5.4,6.98-9.49,6.34-2.5-.39-3.98-2.28-6.44-5.88-6.69-9.79-10.03-14.68-11.18-19.33-.68-2.74-2.27-9.53,0-17.78,1.1-4,4.23-15.37,15.08-20.26,14.08-6.34,31.97,2.35,31.69,5.41-.21,2.32-10.89,1.63-12.54,6.5Z"/>
        <path class="cls-4" d="M1066.77,135.98c-.43,.39-1.59-1.48-4.07-1.7-4.41-.4-6.32,5.01-13.9,11.6-6.25,5.44-10.55,6.63-10.2,9.28,.29,2.17,3.26,2.18,6.49,6.69,1.31,1.83,2.94,4.1,2.51,6.54-.47,2.72-3.05,3.22-5.58,5.94-5.16,5.56-2.6,12.24-5.22,13.21-3.45,1.28-14.02-8.07-14.47-19.16-.43-10.7,8.9-14.89,6.73-24.86-1.4-6.4-6.24-9.29-4.66-12.18,1.47-2.69,5.95-.66,13.02-3.1,8.65-2.98,9.13-8.5,14.27-8.56,8.58-.09,16.27,15.22,15.08,16.3Z"/>
        <path class="cls-3" d="M1068.4,142.5c2.08,.58,2.63,4.02,3.56,9.59,3.65,21.97,4.22,23.53,2.55,26.2-3.49,5.59-10.62,6.07-10.2,9.28,.29,2.17,3.26,2.18,6.49,6.69,1.31,1.83,2.94,4.1,2.51,6.54-.48,2.76-2.92,5.49-5.58,5.94-5.93,1-14.81-8.85-14.01-17.17,.62-6.47,7.01-11.19,5.5-13.04-.74-.91-2.31,.2-4.45-.6-4.19-1.56-6.96-9.08-4.66-12.18,2.36-3.18,8.17,.8,13.02-3.1,3.07-2.47,4.87-7.38,3.43-10.41-1.02-2.17-3.25-2.42-3.26-4.08,0-1.95,3.06-4.23,5.09-3.67Z"/>
      </g>
    </g>
  </g>
  <g id="Foreground">
    <g id="Tree_Behind_Bulli" data-name="Tree Behind Bulli">
      <rect class="cls-17" x="723.38" y="858.2" width="5.69" height="52.29"/>
    </g>
    <g id="Trees">
      <rect class="cls-17" x="474.18" y="778.69" width="7.92" height="55.74"/>
      <rect class="cls-17" x="568.4" y="772.94" width="5.69" height="52.29"/>
      <rect class="cls-17" x="530.61" y="797.38" width="6.68" height="48.14"/>
      <rect class="cls-17" x="358.75" y="798.99" width="7.92" height="55.74"/>
      <rect class="cls-17" x="440.96" y="814.63" width="5.69" height="52.29"/>
      <rect class="cls-17" x="401.32" y="849.39" width="6.68" height="48.14"/>
      <rect class="cls-17" x="613.92" y="792.98" width="7.92" height="55.74"/>
      <rect class="cls-17" x="577.33" y="842.65" width="5.69" height="52.29"/>
      <rect class="cls-17" x="668.49" y="821.99" width="6.68" height="48.14"/>
      <rect class="cls-17" x="486.97" y="857.35" width="7.92" height="55.74"/>
      <rect class="cls-17" x="127.51" y="818.26" width="7.92" height="55.74"/>
      <rect class="cls-17" x="221.73" y="812.5" width="5.69" height="52.29"/>
      <rect class="cls-17" x="182.08" y="847.27" width="6.68" height="48.14"/>
      <rect class="cls-17" x="18.61" y="857.23" width="7.92" height="55.74"/>
      <rect class="cls-17" x="94.29" y="854.19" width="5.69" height="52.29"/>
      <rect class="cls-17" x="55.33" y="918.87" width="6.68" height="48.14"/>
      <rect class="cls-17" x="267.24" y="832.55" width="7.92" height="55.74"/>
      <rect class="cls-17" x="230.65" y="882.22" width="5.69" height="52.29"/>
      <rect class="cls-17" x="321.81" y="861.56" width="6.68" height="48.14"/>
      <rect class="cls-17" x="132.29" y="898.92" width="7.92" height="55.74"/>
      <rect class="cls-17" x="634.76" y="862.16" width="5.69" height="52.29"/>
      <rect class="cls-17" x="773.99" y="799.13" width="6.68" height="48.14"/>
      <rect class="cls-17" x="826.76" y="927.12" width="5.69" height="52.29"/>
      <rect class="cls-17" x="1414.47" y="797.75" width="7.92" height="55.74"/>
      <rect class="cls-17" x="1875.62" y="773.3" width="7.46" height="55.74"/>
    </g>
    <g id="Bulli">
      <path class="cls-15" d="M1230.59,773.13c-54.74-.12-109.49-.24-164.23-.37,.56-2.91,1.12-5.81,1.68-8.72,.63-1.09,1.26-2.19,1.89-3.28,4.5-7.02,8.99-14.04,13.49-21.07,6.07-.63,12.14-1.27,18.21-1.9l122.81,.62c.22,.17,.57,.48,.86,.98,.3,.52,.38,1,.41,1.27,.45,2.82,2.99,18.84,3.56,21.36,.07,.31,.14,.61,.14,.61,.34,1.4,.74,2.73,1.17,3.99,0,2.17,0,4.34,0,6.51Z"/>
      <path class="cls-10" d="M1068.81,785.15c-.24,1.71-.38,2.6-.46,3.08-.1,.58-.09,.56-.09,.62-.19,1.57,.12,2.17-.35,2.61-.35,.33-.92,.36-1.02,.36-1.65,.04-3.7-2.78-4.04-5.48-.46-3.61,2.1-7.21,3.72-7.17,.35,0,1.19,.19,1.71,.75,.26,.28,.35,.55,.4,.71,.53,1.73,.13,4.52,.13,4.52Z"/>
      <rect class="cls-27" x="1112.69" y="746.64" width="21.41" height="14.75" rx="2.75" ry="2.75" transform="translate(-12.99 19.72) rotate(-1)"/>
      <rect class="cls-7" x="1139.45" y="746.19" width="21.41" height="14.75" rx="2.75" ry="2.75" transform="translate(-12.98 20.19) rotate(-1)"/>
      <rect class="cls-6" x="1165.87" y="745.75" width="21.41" height="14.75" rx="2.75" ry="2.75" transform="translate(-12.96 20.65) rotate(-1)"/>
      <path class="cls-5" d="M1081.2,761.75c-.89,.58-1.79,.6-2.14,.59-2.2,.16-4.39,.32-6.59,.48-.06-.02-.46-.15-.64-.58-.17-.39-.03-.75,0-.81,2.19-3.74,4.38-7.47,6.57-11.21,.46-.72,1.16-1.54,2.17-2.19,.44-.28,1-.63,1.82-.78,.84-.15,1.54-.03,1.94,.08,.19,.03,.69,.12,1.11,.54,.65,.63,.59,1.49,.58,1.61h0l-3.63,11.02c-.17,.3-.54,.83-1.19,1.25Z"/>
      <path class="cls-8" d="M1091.6,761.56c-.73,.59-1.57,.48-1.71,.46-1.76,.13-3.51,.25-5.27,.38-.06-.02-.46-.15-.64-.58-.17-.39-.03-.75,0-.81,1.34-3.83,2.67-7.65,4.01-11.48,.23-.39,.63-.97,1.31-1.49,.92-.71,1.86-.93,2.34-1,.6,.07,1.2,.14,1.8,.21,.11,.01,.83,.1,1.28,.75,.34,.5,.31,1.02,.3,1.17l-2.63,11.09c-.04,.18-.19,.82-.78,1.29Z"/>
    </g>
    <g id="Tent">
      <polygon class="cls-18" points="1622.6 801.12 1640.19 788.8 1639.71 788.29 1622.13 800.61 1622.6 801.12"/>
      <rect class="cls-12" x="1621.06" y="797.67" width="1.89" height="6.05" transform="translate(3244.01 1601.4) rotate(180)"/>
      <path class="cls-12" d="M1802.62,792.97c-32.35,9.73-64.71,19.47-97.06,29.2,.03-2.52,.07-5.03,.1-7.55,32.32-9.32,64.63-18.64,96.95-27.96v6.31Z"/>
      <path class="cls-16" d="M1705.56,822.17c-24.63-6.76-49.26-13.52-73.88-20.28l-.51-9.24c5.7-3.87,12.61-9.42,19.26-17.2,12.02-14.07,17.37-28.59,19.86-37.58,.98,10.63,3.84,27.19,12.92,45.27,7.18,14.28,15.8,24.66,22.47,31.49-.03,2.52-.07,5.03-.1,7.55Z"/>
      <path class="cls-12" d="M1647.7,802.75c4.08-6.11,8.1-13.21,11.62-21.31,1.97-4.54,4.83-11.77,7.17-21.01,1.64-6.46,3.07-14.04,3.78-22.57,.02,13.06,1.11,28.63,4.55,45.87,2.12,10.62,4.79,20.21,7.63,28.69-11.59-3.22-23.17-6.44-34.76-9.67Z"/>
      <path class="cls-13" d="M1663.61,770.27c-5.08,15.48-11.94,27.54-17.68,36.03-1.92-2.36-3.83-4.72-5.75-7.08,5.18-5.76,11.09-13.39,16.45-23.05,8.15-14.72,11.85-28.46,13.64-38.31-.79,8.88-2.6,20.04-6.67,32.41Z"/>
      <path class="cls-13" d="M1680.88,815.39c1.82-1.9,3.65-3.79,5.47-5.69-3.43-9.17-6.77-19.6-9.56-31.21-3.6-14.97-5.54-28.7-6.52-40.64-.04-.5-.25,17.66,2.86,39.51,2.3,16.16,5.41,29.26,7.75,38.02Z"/>
      <rect class="cls-18" x="1705.1" y="818.87" width="19.65" height=".66" transform="translate(892.2 -894.04) rotate(38.82)"/>
      <rect class="cls-18" x="1795.81" y="791.11" width="19.65" height=".66" transform="translate(894.83 -957.03) rotate(38.82)"/>
      <rect class="cls-12" x="1812.78" y="794.41" width="1.64" height="6.05"/>
    </g>
    <rect class="cls-12" x="1737.08" y="837.46" width="1.64" height="6.05"/>
  </g>
</svg>